<?xml version="1.0" encoding="UTF-8" standalone="no"?>
<svg
   xmlns:dc="http://purl.org/dc/elements/1.1/"
   xmlns:cc="http://creativecommons.org/ns#"
   xmlns:rdf="http://www.w3.org/1999/02/22-rdf-syntax-ns#"
   xmlns:svg="http://www.w3.org/2000/svg"
   xmlns="http://www.w3.org/2000/svg"
   xmlns:xlink="http://www.w3.org/1999/xlink"
   xmlns:sodipodi="http://sodipodi.sourceforge.net/DTD/sodipodi-0.dtd"
   xmlns:inkscape="http://www.inkscape.org/namespaces/inkscape"
   width="256"
   height="256"
   viewBox="0 0 256 256"
   version="1.1"
   id="svg1337"
   inkscape:version="1.0.2 (e86c870879, 2021-01-15)"
   sodipodi:docname="download-TNE.svg">
  <defs
     id="defs1331">
    <linearGradient
       inkscape:collect="always"
       id="linearGradient875">
      <stop
         style="stop-color:#fd36a6;stop-opacity:1;"
         offset="0"
         id="stop871" />
      <stop
         style="stop-color:#1caeda;stop-opacity:1"
         offset="1"
         id="stop873" />
    </linearGradient>
    <filter
       inkscape:collect="always"
       style="color-interpolation-filters:sRGB"
       id="filter2243"
       x="-0.027"
       width="1.054"
       y="-0.027"
       height="1.054">
      <feGaussianBlur
         inkscape:collect="always"
         stdDeviation="2.8125"
         id="feGaussianBlur2245" />
    </filter>
    <linearGradient
       inkscape:collect="always"
       xlink:href="#linearGradient875"
       id="linearGradient2261"
       x1="5.9948769"
       y1="341.48114"
       x2="250.65532"
       y2="588.22681"
       gradientUnits="userSpaceOnUse"
       gradientTransform="matrix(0.94837749,0,0,0.94837749,6.3335404,-311.72486)" />
  </defs>
  <sodipodi:namedview
     id="base"
     pagecolor="#656565"
     bordercolor="#b61616"
     borderopacity="1"
     inkscape:pageopacity="0"
     inkscape:pageshadow="2"
     inkscape:zoom="0.98994949"
     inkscape:cx="-282.09954"
     inkscape:cy="326.92464"
     inkscape:document-units="px"
     inkscape:current-layer="layer1"
     inkscape:document-rotation="0"
     showgrid="false"
     units="px"
     inkscape:pagecheckerboard="true"
     borderlayer="true"
     inkscape:showpageshadow="false"
     inkscape:window-width="1909"
     inkscape:window-height="1050"
     inkscape:window-x="-3"
     inkscape:window-y="1061"
     inkscape:window-maximized="0" />
  <metadata
     id="metadata1334">
    <rdf:RDF>
      <cc:Work
         rdf:about="">
        <dc:format>image/svg+xml</dc:format>
        <dc:type
           rdf:resource="http://purl.org/dc/dcmitype/StillImage" />
        <dc:title></dc:title>
      </cc:Work>
    </rdf:RDF>
  </metadata>
  <g
     inkscape:label="Ebene 1"
     inkscape:groupmode="layer"
     id="layer1">
    <g
       id="g2293">
      <path
         id="path2197"
         style="fill:#000000;fill-opacity:1;stroke-width:4.25745;stroke-linecap:round;paint-order:stroke markers fill;filter:url(#filter2243)"
         d="M 128,3 A 125,125 0 0 0 2.9999989,128 125,125 0 0 0 128,253 125,125 0 0 0 253,128 125,125 0 0 0 128,3 Z m -9.83984,41.58789 h 19.68164 c 5.01162,-0.005 4.09766,4.10742 4.09766,4.10742 l -0.13477,59.5332 42.87695,0.23633 c 1.93511,0.0105 1.36834,3.57107 0,4.93945 l -54.21093,54.21094 c -0.2146,0.21464 -0.45211,0.45739 -0.70118,0.68945 L 128,170.07226 l -1.80859,-1.80859 c -0.2346,-0.21887 -0.45682,-0.4451 -0.66016,-0.64844 L 71.318358,113.40429 c -1.368341,-1.36838 -1.935119,-4.92815 0,-4.93945 l 42.878912,-0.23633 V 48.55078 c 0,-2.19553 1.76733,-3.96289 3.96289,-3.96289 z M 66.898436,186.18554 H 189.10352 v 25.79297 H 66.898436 Z"
         transform="matrix(0.94837749,0,0,0.94837749,6.6076818,6.6076819)" />
      <path
         id="path2161"
         style="fill:url(#linearGradient2261);fill-opacity:1;stroke:none;stroke-width:4.03767;stroke-linecap:round;paint-order:stroke markers fill"
         d="M 128,9.4528143 A 118.54719,118.54719 0 0 0 9.4528133,128 118.54719,118.54719 0 0 0 128,246.54719 118.54719,118.54719 0 0 0 246.54719,128 118.54719,118.54719 0 0 0 128,9.4528143 Z m -9.33188,39.4410187 h 18.66562 c 4.75291,-0.0047 3.88613,3.895385 3.88613,3.895385 l -0.12781,56.459942 40.66353,0.22413 c 1.83522,0.01 1.2977,3.38673 0,4.68447 l -51.41242,51.41243 c -0.20353,0.20356 -0.42878,0.43378 -0.66499,0.65386 L 128,167.90038 l -1.71523,-1.71522 c -0.22249,-0.20757 -0.43323,-0.42212 -0.62608,-0.61497 L 74.244407,114.15776 c -1.297704,-1.29774 -1.835223,-4.67375 0,-4.68447 L 114.9098,109.24916 V 52.652149 c 0,-2.082192 1.6761,-3.758316 3.75832,-3.758316 z M 70.052652,183.18186 H 185.9492 v 24.46147 H 70.052652 Z" />
    </g>
  </g>
</svg>
