<?xml version="1.0" encoding="UTF-8" standalone="no"?>
<svg
   xmlns:dc="http://purl.org/dc/elements/1.1/"
   xmlns:cc="http://creativecommons.org/ns#"
   xmlns:rdf="http://www.w3.org/1999/02/22-rdf-syntax-ns#"
   xmlns:svg="http://www.w3.org/2000/svg"
   xmlns="http://www.w3.org/2000/svg"
   xmlns:xlink="http://www.w3.org/1999/xlink"
   xmlns:sodipodi="http://sodipodi.sourceforge.net/DTD/sodipodi-0.dtd"
   xmlns:inkscape="http://www.inkscape.org/namespaces/inkscape"
   width="256"
   height="256"
   viewBox="0 0 256 256"
   version="1.1"
   id="svg1337"
   inkscape:version="1.0.2 (e86c870879, 2021-01-15)"
   sodipodi:docname="flash-TNE.svg">
  <defs
     id="defs1331">
    <linearGradient
       inkscape:collect="always"
       id="linearGradient875">
      <stop
         style="stop-color:#fd36a6;stop-opacity:1;"
         offset="0"
         id="stop871" />
      <stop
         style="stop-color:#1caeda;stop-opacity:1"
         offset="1"
         id="stop873" />
    </linearGradient>
    <linearGradient
       inkscape:collect="always"
       xlink:href="#linearGradient875"
       id="linearGradient2261"
       x1="5.9948769"
       y1="341.48114"
       x2="250.65532"
       y2="588.22681"
       gradientUnits="userSpaceOnUse"
       gradientTransform="matrix(0.94837749,0,0,0.94837749,-286.80681,-311.72486)" />
    <filter
       inkscape:collect="always"
       style="color-interpolation-filters:sRGB"
       id="filter2640"
       x="-0.027"
       width="1.054"
       y="-0.027"
       height="1.054">
      <feGaussianBlur
         inkscape:collect="always"
         stdDeviation="2.6673047"
         id="feGaussianBlur2642" />
    </filter>
  </defs>
  <sodipodi:namedview
     id="base"
     pagecolor="#656565"
     bordercolor="#b61616"
     borderopacity="1"
     inkscape:pageopacity="0"
     inkscape:pageshadow="2"
     inkscape:zoom="1.979899"
     inkscape:cx="74.045583"
     inkscape:cy="134.01568"
     inkscape:document-units="px"
     inkscape:current-layer="layer1"
     inkscape:document-rotation="0"
     showgrid="false"
     units="px"
     inkscape:pagecheckerboard="true"
     borderlayer="true"
     inkscape:showpageshadow="false"
     inkscape:window-width="1909"
     inkscape:window-height="1050"
     inkscape:window-x="-3"
     inkscape:window-y="1061"
     inkscape:window-maximized="0"
     inkscape:snap-global="false" />
  <metadata
     id="metadata1334">
    <rdf:RDF>
      <cc:Work
         rdf:about="">
        <dc:format>image/svg+xml</dc:format>
        <dc:type
           rdf:resource="http://purl.org/dc/dcmitype/StillImage" />
        <dc:title></dc:title>
      </cc:Work>
    </rdf:RDF>
  </metadata>
  <g
     inkscape:label="Ebene 1"
     inkscape:groupmode="layer"
     id="layer1">
    <g
       id="g2646"
       transform="translate(293.14062)">
      <path
         id="path2506"
         style="opacity:1;fill:#000000;fill-opacity:1;stroke:none;stroke-width:4.03767;stroke-linecap:round;paint-order:stroke markers fill;filter:url(#filter2640)"
         d="M -165.14062,9.453125 C -230.61243,9.4531268 -283.6875,62.528198 -283.6875,128 c 0,65.4718 53.07507,118.54688 118.54688,118.54688 65.471774,0 118.54687,-53.07507 118.54687,-118.54688 0,-65.471803 -53.075106,-118.546875 -118.54687,-118.546875 z m 0.56835,15.457031 17.34961,28.394532 -14.51172,0.144531 V 174.34961 c 1.35503,-1.47901 2.92501,-2.8284 4.76368,-4.17578 15.53187,-10.47549 25.15698,-15.36508 22.86523,-35.76367 l -0.38281,-8.4668 a 11.317063,11.317063 0 0 1 -9.19531,-11.11524 11.317063,11.317063 0 0 1 11.31836,-11.3164 11.317063,11.317063 0 0 1 11.3164,11.3164 11.317063,11.317063 0 0 1 -7.50976,10.65626 c 0.21367,6.00881 0.37849,13.91242 -0.0508,19.17773 -2.42333,22.85967 -20.80459,21.56441 -29.80078,36.20898 -1.73961,2.43482 -2.74665,4.57842 -3.32422,6.57032 v 8.15625 a 17.911774,17.911774 0 0 1 14.48047,17.58007 17.911774,17.911774 0 0 1 -17.91211,17.91211 17.911774,17.911774 0 0 1 -17.9121,-17.91211 17.911774,17.911774 0 0 1 14.2832,-17.53906 v -43.95312 l -0.0195,0.67773 c 0,0 -3.10232,-7.87255 -6.14649,-10.95898 -12.89522,-13.07423 -22.40082,-12.74555 -25.48047,-34.64258 l 0.16993,-15.216798 h -8.96094 V 67.005859 h 24.53906 v 24.539063 h -9.19531 c -0.014,0.328592 -0.38814,9.214818 0.0547,13.718748 0.70326,7.15282 1.74788,12.35668 7.31054,17.7461 8.87614,8.5997 16.79413,15.30597 17.72852,16.09375 V 53.435547 l -13.12891,-0.130859 z" />
      <path
         id="path2161"
         style="opacity:1;fill:url(#linearGradient2261);fill-opacity:1;stroke:none;stroke-width:4.03767;stroke-linecap:round;paint-order:stroke markers fill"
         d="M -165.14062,9.453125 C -230.61243,9.4531268 -283.6875,62.528198 -283.6875,128 c 0,65.4718 53.07507,118.54688 118.54688,118.54688 65.471774,0 118.54687,-53.07507 118.54687,-118.54688 0,-65.471803 -53.075106,-118.546875 -118.54687,-118.546875 z m 0.56835,15.457031 17.34961,28.394532 -14.51172,0.144531 V 174.34961 c 1.35503,-1.47901 2.92501,-2.8284 4.76368,-4.17578 15.53187,-10.47549 25.15698,-15.36508 22.86523,-35.76367 l -0.38281,-8.4668 a 11.317063,11.317063 0 0 1 -9.19531,-11.11524 11.317063,11.317063 0 0 1 11.31836,-11.3164 11.317063,11.317063 0 0 1 11.3164,11.3164 11.317063,11.317063 0 0 1 -7.50976,10.65626 c 0.21367,6.00881 0.37849,13.91242 -0.0508,19.17773 -2.42333,22.85967 -20.80459,21.56441 -29.80078,36.20898 -1.73961,2.43482 -2.74665,4.57842 -3.32422,6.57032 v 8.15625 a 17.911774,17.911774 0 0 1 14.48047,17.58007 17.911774,17.911774 0 0 1 -17.91211,17.91211 17.911774,17.911774 0 0 1 -17.9121,-17.91211 17.911774,17.911774 0 0 1 14.2832,-17.53906 v -43.95312 l -0.0195,0.67773 c 0,0 -3.10232,-7.87255 -6.14649,-10.95898 -12.89522,-13.07423 -22.40082,-12.74555 -25.48047,-34.64258 l 0.16993,-15.216798 h -8.96094 V 67.005859 h 24.53906 v 24.539063 h -9.19531 c -0.014,0.328592 -0.38814,9.214818 0.0547,13.718748 0.70326,7.15282 1.74788,12.35668 7.31054,17.7461 8.87614,8.5997 16.79413,15.30597 17.72852,16.09375 V 53.435547 l -13.12891,-0.130859 z" />
    </g>
  </g>
</svg>
